<svg width="14" height="14" viewBox="0 0 14 14" fill="none" xmlns="http://www.w3.org/2000/svg">
<path d="M6.99998 0C5.61552 0 4.26214 0.410542 3.111 1.17971C1.95986 1.94888 1.06266 3.04212 0.532845 4.3212C0.00303298 5.60028 -0.13559 7.00774 0.134506 8.36561C0.404602 9.72347 1.07128 10.9707 2.05025 11.9497C3.02921 12.9287 4.27649 13.5954 5.63435 13.8655C6.99222 14.1356 8.39968 13.9969 9.67876 13.4671C10.9578 12.9373 12.0511 12.0401 12.8203 10.889C13.5894 9.73782 14 8.38444 14 6.99998C14 6.08073 13.8189 5.17048 13.4671 4.3212C13.1153 3.47193 12.5997 2.70025 11.9497 2.05025C11.2997 1.40024 10.528 0.884624 9.67876 0.532842C8.82948 0.18106 7.91923 0 6.99998 0ZM6.99998 12.6C5.89241 12.6 4.80971 12.2715 3.8888 11.6562C2.96789 11.0409 2.25012 10.1663 1.82627 9.143C1.40242 8.11974 1.29152 6.99377 1.5076 5.90748C1.72368 4.82119 2.25702 3.82336 3.0402 3.04019C3.82337 2.25702 4.82119 1.72367 5.90748 1.5076C6.99377 1.29152 8.11974 1.40242 9.143 1.82627C10.1663 2.25012 11.0409 2.96788 11.6562 3.88879C12.2715 4.80971 12.6 5.89241 12.6 6.99998C12.6 8.48519 12.01 9.90957 10.9598 10.9598C9.90957 12.01 8.48519 12.6 6.99998 12.6ZM9.79997 6.29998H7.69998V4.19999C7.69998 4.01434 7.62623 3.83629 7.49496 3.70501C7.36368 3.57374 7.18563 3.49999 6.99998 3.49999C6.81433 3.49999 6.63628 3.57374 6.50501 3.70501C6.37373 3.83629 6.29998 4.01434 6.29998 4.19999V6.29998H4.19999C4.01434 6.29998 3.83629 6.37373 3.70502 6.50501C3.57374 6.63628 3.49999 6.81433 3.49999 6.99998C3.49999 7.18563 3.57374 7.36368 3.70502 7.49495C3.83629 7.62623 4.01434 7.69998 4.19999 7.69998H6.29998V9.79997C6.29998 9.98562 6.37373 10.1637 6.50501 10.2949C6.63628 10.4262 6.81433 10.5 6.99998 10.5C7.18563 10.5 7.36368 10.4262 7.49496 10.2949C7.62623 10.1637 7.69998 9.98562 7.69998 9.79997V7.69998H9.79997C9.98562 7.69998 10.1637 7.62623 10.2949 7.49495C10.4262 7.36368 10.5 7.18563 10.5 6.99998C10.5 6.81433 10.4262 6.63628 10.2949 6.50501C10.1637 6.37373 9.98562 6.29998 9.79997 6.29998Z" fill="white"/>
</svg>
