<svg width="50" height="50" viewBox="0 0 50 50" fill="none" xmlns="http://www.w3.org/2000/svg">
<path fill-rule="evenodd" clip-rule="evenodd" d="M37.3809 7.16305C33.3814 11.1028 29.8875 14.6159 29.6167 14.97C25.3426 20.5591 24.654 28.09 27.8448 34.3486C28.4843 35.6028 29.6876 37.339 30.5773 38.291L31.313 39.0783L38.4005 32.1211C43.2604 27.3506 45.7382 24.8398 46.2839 24.133C48.0267 21.876 49.133 19.4191 49.8064 16.3113C49.9647 15.5806 50.0032 14.9192 49.9998 12.9849C49.9961 10.8887 49.9629 10.4221 49.7479 9.44389C48.974 5.92197 47.6149 3.3277 45.0114 0.402925L44.6528 0L37.3809 7.16305ZM4.5057 1.02786C2.81762 2.97199 1.64841 4.99884 0.875892 7.32057C0.135582 9.54561 -0.00592853 10.4959 0.000186124 13.1995C0.00477211 15.1809 0.0403682 15.6649 0.252634 16.6287C0.637093 18.3747 1.21231 19.9876 1.97434 21.4566C3.28364 23.9805 3.44863 24.1653 11.4004 32.011L18.6665 39.1802L19.2604 38.5565C22.7109 34.9338 24.6191 29.3331 24.0791 24.4127C23.6781 20.7579 22.4572 17.7477 20.1625 14.7554C19.6782 14.1239 5.53493 0.108484 5.38195 0.108484C5.33904 0.108484 4.94476 0.522246 4.5057 1.02786ZM3.61897 27.9581C-0.300414 32.4434 0.0618789 39.7635 4.5271 46.3037C5.30596 47.4446 6.61067 49.0366 7.27225 49.6536L7.64383 50L12.4727 45.2537L17.3015 40.5075L10.6682 33.9947L4.03498 27.482L3.61897 27.9581ZM39.2489 33.9626L32.6436 40.4545L37.4471 45.1758C40.089 47.7727 42.3053 49.8973 42.372 49.8973C42.5147 49.8973 43.9355 48.3149 44.7616 47.2358C46.6782 44.7319 48.1093 41.6908 48.7676 38.7224C48.9746 37.7889 49.0142 37.2849 49.0156 35.5723C49.0169 33.8224 48.983 33.4011 48.7766 32.5992C48.4234 31.2262 47.9315 30.0517 47.3314 29.1482C46.8102 28.3639 46.0609 27.4709 45.9237 27.4709C45.8854 27.4709 42.8818 30.3922 39.2489 33.9626Z" fill="white"/>
</svg>
