<svg width="35" height="32" viewBox="0 0 35 32" fill="none" xmlns="http://www.w3.org/2000/svg">
<path d="M34.9999 15.5981C34.9999 13.278 32.0963 11.0793 27.6446 9.71578C28.672 5.17556 28.2154 1.56338 26.2036 0.406906C25.7398 0.135635 25.1976 0.00713859 24.6055 0.00713859V1.59907C24.9337 1.59907 25.1976 1.66332 25.4188 1.78468C26.389 2.34149 26.81 4.46169 26.4818 7.18867C26.4033 7.85971 26.2749 8.56644 26.1179 9.28745C24.7197 8.9448 23.193 8.68066 21.5878 8.50933C20.6247 7.18867 19.6259 5.98937 18.62 4.93998C20.9457 2.77696 23.1288 1.59193 24.6127 1.59193V0C22.6508 0 20.0825 1.39919 17.4857 3.82635C14.8889 1.41346 12.3206 0.0285549 10.3587 0.0285549V1.62049C11.8355 1.62049 14.0256 2.79837 16.3514 4.94712C15.3526 5.99651 14.3538 7.18867 13.405 8.50933C11.7927 8.68066 10.266 8.9448 8.86769 9.29459C8.7036 8.58072 8.58232 7.88827 8.49671 7.22437C8.16141 4.49738 8.57519 2.37719 9.53829 1.81323C9.75232 1.68473 10.0305 1.62762 10.3587 1.62762V0.0356935C9.75945 0.0356935 9.21726 0.16419 8.74641 0.435461C6.74173 1.59193 6.29228 5.19698 7.32672 9.72291C2.88931 11.0935 0 13.2851 0 15.5981C0 17.9181 2.90358 20.1169 7.35526 21.4804C6.32795 26.0206 6.78453 29.6328 8.79635 30.7892C9.26006 31.0605 9.80226 31.189 10.4015 31.189C12.3634 31.189 14.9317 29.7898 17.5285 27.3626C20.1253 29.7755 22.6936 31.1604 24.6555 31.1604C25.2547 31.1604 25.7969 31.0319 26.2678 30.7607C28.2724 29.6042 28.7219 25.9992 27.6874 21.4732C32.1106 20.1097 34.9999 17.911 34.9999 15.5981ZM25.7113 10.8366C25.4473 11.7574 25.1192 12.7069 24.7482 13.6563C24.4557 13.0852 24.1489 12.5141 23.8136 11.9431C23.4855 11.372 23.1359 10.8151 22.7863 10.2726C23.7994 10.4225 24.7767 10.6081 25.7113 10.8366ZM22.4439 18.4393C21.8874 19.403 21.3167 20.3168 20.7246 21.1663C19.6616 21.2591 18.5843 21.309 17.5 21.309C16.4227 21.309 15.3455 21.2591 14.2896 21.1734C13.6975 20.3239 13.1196 19.4173 12.5632 18.4607C12.021 17.5255 11.5287 16.5761 11.0793 15.6195C11.5216 14.6629 12.021 13.7063 12.556 12.7711C13.1125 11.8074 13.6832 10.8937 14.2753 10.0442C15.3383 9.95135 16.4156 9.90138 17.5 9.90138C18.5772 9.90138 19.6544 9.95135 20.7103 10.037C21.3024 10.8865 21.8803 11.7931 22.4368 12.7497C22.9789 13.6849 23.4712 14.6343 23.9206 15.5909C23.4712 16.5475 22.9789 17.5041 22.4439 18.4393ZM24.7482 17.5112C25.1334 18.4678 25.4616 19.4244 25.7327 20.3524C24.7981 20.5809 23.8136 20.7736 22.7935 20.9235C23.143 20.3739 23.4926 19.8099 23.8208 19.2317C24.1489 18.6606 24.4557 18.0823 24.7482 17.5112ZM17.5142 25.1282C16.8507 24.4429 16.1873 23.6791 15.5309 22.8438C16.173 22.8724 16.8293 22.8938 17.4928 22.8938C18.1634 22.8938 18.8269 22.8795 19.4761 22.8438C18.834 23.6791 18.1706 24.4429 17.5142 25.1282ZM12.2064 20.9235C11.1934 20.7736 10.216 20.588 9.28147 20.3596C9.54543 19.4387 9.8736 18.4892 10.2446 17.5398C10.5371 18.1109 10.8438 18.682 11.1791 19.2531C11.5144 19.8242 11.8569 20.381 12.2064 20.9235ZM17.4786 6.0679C18.142 6.75321 18.8055 7.51705 19.4618 8.35228C18.8198 8.32373 18.1634 8.30231 17.5 8.30231C16.8293 8.30231 16.1659 8.31659 15.5167 8.35228C16.1587 7.51705 16.8222 6.75321 17.4786 6.0679ZM12.1993 10.2726C11.8497 10.8223 11.5002 11.3862 11.172 11.9645C10.8438 12.5356 10.5371 13.1067 10.2446 13.6778C9.85933 12.7212 9.53116 11.7646 9.26006 10.8366C10.1946 10.6153 11.1791 10.4225 12.1993 10.2726ZM5.74295 19.2103C3.21748 18.1323 1.58377 16.7188 1.58377 15.5981C1.58377 14.4773 3.21748 13.0567 5.74295 11.9859C6.35649 11.7218 7.02709 11.4862 7.7191 11.2649C8.12574 12.6641 8.6608 14.1204 9.32427 15.6123C8.66793 17.0972 8.14001 18.5464 7.7405 19.9384C7.03423 19.7171 6.36362 19.4744 5.74295 19.2103ZM9.5811 29.4115C8.61086 28.8546 8.18995 26.7344 8.51812 24.0075C8.59659 23.3364 8.72501 22.6297 8.88196 21.9087C10.2802 22.2513 11.8069 22.5155 13.4121 22.6868C14.3752 24.0075 15.374 25.2068 16.3799 26.2561C14.0542 28.4192 11.8711 29.6042 10.3873 29.6042C10.0662 29.5971 9.79512 29.5328 9.5811 29.4115ZM26.5032 23.9718C26.8385 26.6987 26.4247 28.8189 25.4616 29.3829C25.2476 29.5114 24.9694 29.5685 24.6412 29.5685C23.1644 29.5685 20.9743 28.3906 18.6485 26.2419C19.6473 25.1925 20.6461 24.0003 21.5949 22.6797C23.2072 22.5083 24.7339 22.2442 26.1322 21.8944C26.2963 22.6154 26.4247 23.3079 26.5032 23.9718ZM29.2498 19.2103C28.6363 19.4744 27.9657 19.71 27.2737 19.9313C26.867 18.5321 26.332 17.0758 25.6685 15.5838C26.3248 14.0989 26.8528 12.6498 27.2523 11.2577C27.9585 11.479 28.6291 11.7218 29.2569 11.9859C31.7824 13.0638 33.4161 14.4773 33.4161 15.5981C33.409 16.7188 31.7753 18.1394 29.2498 19.2103Z" fill="#61DAFB"/>
<path d="M17.4928 18.8604C19.2934 18.8604 20.753 17.3998 20.753 15.598C20.753 13.7963 19.2934 12.3356 17.4928 12.3356C15.6921 12.3356 14.2325 13.7963 14.2325 15.598C14.2325 17.3998 15.6921 18.8604 17.4928 18.8604Z" fill="#61DAFB"/>
</svg>
